<svg id="visual" viewBox="0 0 540 960" width="540" height="960" xmlns="http://www.w3.org/2000/svg" xmlns:xlink="http://www.w3.org/1999/xlink" version="1.1"><g stroke-width="1" stroke-linejoin="bevel"><path d="M259 450.7L132 511.3L248 530.3Z" fill="#161616" stroke="#161616"></path><path d="M259 450.7L159 384.7L132 511.3Z" fill="#000000" stroke="#000000"></path><path d="M132 511.3L265 571L248 530.3Z" fill="#000000" stroke="#000000"></path><path d="M248 530.3L370 431.7L259 450.7Z" fill="#383838" stroke="#383838"></path><path d="M0 493.7L81 567.3L132 511.3Z" fill="#1f1f1f" stroke="#1f1f1f"></path><path d="M132 511.3L81 567.3L265 571Z" fill="#333333" stroke="#333333"></path><path d="M251 262L120 357L159 384.7Z" fill="#101010" stroke="#101010"></path><path d="M159 384.7L37 403.7L132 511.3Z" fill="#000000" stroke="#000000"></path><path d="M120 357L37 403.7L159 384.7Z" fill="#101010" stroke="#101010"></path><path d="M265 571L370 431.7L248 530.3Z" fill="#000000" stroke="#000000"></path><path d="M259 450.7L251 262L159 384.7Z" fill="#383838" stroke="#383838"></path><path d="M37 403.7L0 480.3L132 511.3Z" fill="#383838" stroke="#383838"></path><path d="M0 480.3L0 493.7L132 511.3Z" fill="#292929" stroke="#292929"></path><path d="M98 666L265 672.7L265 571Z" fill="#2e2e2e" stroke="#2e2e2e"></path><path d="M265 571L412 573.3L370 431.7Z" fill="#000000" stroke="#000000"></path><path d="M0 493.7L0 548L81 567.3Z" fill="#333333" stroke="#333333"></path><path d="M81 567.3L98 666L265 571Z" fill="#000000" stroke="#000000"></path><path d="M0 548L98 666L81 567.3Z" fill="#2e2e2e" stroke="#2e2e2e"></path><path d="M305 253L251 262L259 450.7Z" fill="#292929" stroke="#292929"></path><path d="M120 357L42 276.3L37 403.7Z" fill="#090909" stroke="#090909"></path><path d="M411 587L412 573.3L265 571Z" fill="#090909" stroke="#090909"></path><path d="M265 672.7L411 587L265 571Z" fill="#2e2e2e" stroke="#2e2e2e"></path><path d="M344 761.7L425 587L411 587Z" fill="#2e2e2e" stroke="#2e2e2e"></path><path d="M411 587L425 587L412 573.3Z" fill="#1f1f1f" stroke="#1f1f1f"></path><path d="M412 573.3L540 384.7L370 431.7Z" fill="#161616" stroke="#161616"></path><path d="M370 431.7L305 253L259 450.7Z" fill="#383838" stroke="#383838"></path><path d="M147 193.3L120 357L251 262Z" fill="#333333" stroke="#333333"></path><path d="M147 193.3L42 276.3L120 357Z" fill="#292929" stroke="#292929"></path><path d="M37 403.7L0 270.3L0 480.3Z" fill="#2e2e2e" stroke="#2e2e2e"></path><path d="M0 548L80 729.7L98 666Z" fill="#1a1a1a" stroke="#1a1a1a"></path><path d="M98 666L177 759.3L265 672.7Z" fill="#2e2e2e" stroke="#2e2e2e"></path><path d="M80 729.7L177 759.3L98 666Z" fill="#292929" stroke="#292929"></path><path d="M265 672.7L344 761.7L411 587Z" fill="#1f1f1f" stroke="#1f1f1f"></path><path d="M524 336L317 231.3L305 253Z" fill="#161616" stroke="#161616"></path><path d="M305 253L317 231.3L251 262Z" fill="#383838" stroke="#383838"></path><path d="M524 336L305 253L370 431.7Z" fill="#1a1a1a" stroke="#1a1a1a"></path><path d="M0 246L0 270.3L42 276.3Z" fill="#383838" stroke="#383838"></path><path d="M42 276.3L0 270.3L37 403.7Z" fill="#161616" stroke="#161616"></path><path d="M265 170.7L147 193.3L251 262Z" fill="#2e2e2e" stroke="#2e2e2e"></path><path d="M24 135.7L0 246L42 276.3Z" fill="#1a1a1a" stroke="#1a1a1a"></path><path d="M177 759.3L344 761.7L265 672.7Z" fill="#383838" stroke="#383838"></path><path d="M317 231.3L265 170.7L251 262Z" fill="#090909" stroke="#090909"></path><path d="M540 601.3L412 573.3L425 587Z" fill="#090909" stroke="#090909"></path><path d="M540 601.3L540 384.7L412 573.3Z" fill="#101010" stroke="#101010"></path><path d="M317 231.3L350 144.7L265 170.7Z" fill="#161616" stroke="#161616"></path><path d="M540 384.7L524 336L370 431.7Z" fill="#101010" stroke="#101010"></path><path d="M540 653L540 601.3L425 587Z" fill="#090909" stroke="#090909"></path><path d="M177 759.3L337 823.7L344 761.7Z" fill="#333333" stroke="#333333"></path><path d="M344 761.7L540 653L425 587Z" fill="#090909" stroke="#090909"></path><path d="M207 858.3L337 823.7L177 759.3Z" fill="#000000" stroke="#000000"></path><path d="M419 114.3L350 144.7L317 231.3Z" fill="#292929" stroke="#292929"></path><path d="M0 103.7L24 135.7L127 0Z" fill="#1f1f1f" stroke="#1f1f1f"></path><path d="M540 384.7L540 338L524 336Z" fill="#161616" stroke="#161616"></path><path d="M540 214.3L419 114.3L317 231.3Z" fill="#1f1f1f" stroke="#1f1f1f"></path><path d="M0 823.3L207 858.3L177 759.3Z" fill="#383838" stroke="#383838"></path><path d="M540 830.3L540 653L344 761.7Z" fill="#292929" stroke="#292929"></path><path d="M0 548L0 814.7L80 729.7Z" fill="#090909" stroke="#090909"></path><path d="M80 729.7L0 823.3L177 759.3Z" fill="#161616" stroke="#161616"></path><path d="M24 135.7L147 193.3L127 0Z" fill="#090909" stroke="#090909"></path><path d="M147 193.3L24 135.7L42 276.3Z" fill="#090909" stroke="#090909"></path><path d="M0 814.7L0 823.3L80 729.7Z" fill="#000000" stroke="#000000"></path><path d="M207 858.3L323 875.3L337 823.7Z" fill="#000000" stroke="#000000"></path><path d="M337 823.7L540 830.3L344 761.7Z" fill="#242424" stroke="#242424"></path><path d="M172 0L147 193.3L265 170.7Z" fill="#292929" stroke="#292929"></path><path d="M24 135.7L0 103.7L0 246Z" fill="#1f1f1f" stroke="#1f1f1f"></path><path d="M540 214.3L317 231.3L524 336Z" fill="#161616" stroke="#161616"></path><path d="M350 144.7L172 0L265 170.7Z" fill="#161616" stroke="#161616"></path><path d="M540 338L540 214.3L524 336Z" fill="#161616" stroke="#161616"></path><path d="M185 960L187 960L207 858.3Z" fill="#101010" stroke="#101010"></path><path d="M207 858.3L187 960L323 875.3Z" fill="#1a1a1a" stroke="#1a1a1a"></path><path d="M0 823.3L185 960L207 858.3Z" fill="#292929" stroke="#292929"></path><path d="M386 0L172 0L350 144.7Z" fill="#000000" stroke="#000000"></path><path d="M172 0L127 0L147 193.3Z" fill="#1a1a1a" stroke="#1a1a1a"></path><path d="M540 830.3L337 823.7L481 908.3Z" fill="#1f1f1f" stroke="#1f1f1f"></path><path d="M540 842.7L540 830.3L481 908.3Z" fill="#090909" stroke="#090909"></path><path d="M481 908.3L337 823.7L323 875.3Z" fill="#000000" stroke="#000000"></path><path d="M540 44.7L453 53.7L419 114.3Z" fill="#242424" stroke="#242424"></path><path d="M419 114.3L386 0L350 144.7Z" fill="#090909" stroke="#090909"></path><path d="M416 960L481 908.3L323 875.3Z" fill="#242424" stroke="#242424"></path><path d="M0 823.3L0 960L185 960Z" fill="#161616" stroke="#161616"></path><path d="M389 0L386 0L419 114.3Z" fill="#1a1a1a" stroke="#1a1a1a"></path><path d="M453 53.7L389 0L419 114.3Z" fill="#242424" stroke="#242424"></path><path d="M127 0L0 0L0 103.7Z" fill="#333333" stroke="#333333"></path><path d="M187 960L416 960L323 875.3Z" fill="#242424" stroke="#242424"></path><path d="M540 214.3L540 44.7L419 114.3Z" fill="#383838" stroke="#383838"></path><path d="M453 53.7L540 0L389 0Z" fill="#333333" stroke="#333333"></path><path d="M416 960L484 960L481 908.3Z" fill="#383838" stroke="#383838"></path><path d="M481 908.3L540 960L540 842.7Z" fill="#000000" stroke="#000000"></path><path d="M484 960L540 960L481 908.3Z" fill="#101010" stroke="#101010"></path><path d="M540 44.7L540 0L453 53.7Z" fill="#090909" stroke="#090909"></path></g></svg>